<?xml version="1.0" encoding="UTF-8"?>
<!-- Created with Inkscape (http://www.inkscape.org/) -->
<svg width="132.28" height="132.28" version="1.1" viewBox="0 0 132.28 132.28" xml:space="preserve" xmlns="http://www.w3.org/2000/svg"><defs><clipPath id="clipPath1108"><path d="M 33,242.76 H 242.76 V 33 H 33 Z"/></clipPath></defs><g transform="matrix(1.3333 0 0 -1.3333 46.636 232.29)"><g><g transform="matrix(1.0156 0 0 1.0156 -140.69 14.842)" clip-path="url(#clipPath1108)"><g transform="translate(171.49 104.71)"><path d="m0 0c0-18.333-14.865-33.201-33.204-33.201-18.333 0-33.199 14.868-33.199 33.201 0 18.338 14.866 33.199 33.199 33.199 18.339 0 33.204-14.861 33.204-33.199" fill="#5f277e"/></g><g transform="translate(171.49 104.71)"><path d="m0 0c0-18.333-14.865-33.201-33.204-33.201-18.333 0-33.199 14.868-33.199 33.201 0 18.338 14.866 33.199 33.199 33.199 18.339 0 33.204-14.861 33.204-33.199z" fill="none" stroke="#fff" stroke-width="2"/></g><g transform="translate(130.66 84.944)"><path d="m0 0c-2.656-1.631-4.831-0.415-4.831 2.703v34.126c0 3.118 2.175 4.334 4.831 2.703l27.364-16.801c2.657-1.63 2.657-4.3 0-5.931z" fill="#fff"/></g><g transform="translate(153.93 123.81)"><path d="m0 0c5.704 9.111 3.26 5.062 9.169 14.213 0.604 0.933 1.876 5.822 3.644 5.187 1.789-0.642 5.108 0.689 4.821-1.189-1.044-0.69-2.237-1.532-2.648-2.169-5.994-9.216-4.743-7.289-10.636-16.488" fill="#5f277e" fill-rule="evenodd"/></g><g transform="translate(201.78 107.17)"><path d="m0 0c-5.635 3.223-12.719 4.673-18.662 6.935-6.57 2.498-11.171 6.684-14.942 12.715-2.507 4.006-3.432 8.422-2.563 13.141 0.105 0.575 0.158 1.094 0.978 1.121 8.272 0.286 16.255 0.033 23.307-4.716 5.907-3.976 9.242-10.335 9.995-17.467 0.412-3.913 0.537-7.879 1.887-11.729" fill="#5f277e" fill-rule="evenodd"/></g><g transform="translate(199.34 110.32)"><path d="m0 0c-3.917 2.006-7.912 2.775-11.741 4.037-6.824 2.246-12.438 6.09-16.038 12.453-1.891 3.34-2.846 6.973-2.824 10.838 4e-3 0.568 0.031 0.986 0.812 1.018 6.568 0.28 12.916-0.567 18.65-4 5.476-3.282 8.615-8.242 9.771-14.487 0.589-3.187 0.577-6.449 1.37-9.859" fill="#66c430" fill-rule="evenodd"/></g><g transform="translate(192.78 119.81)"><path d="m0 0s-10.167 12.084-25.167 17.333l0.5 2.833h3.284s14.825-10.672 21.383-20.166" fill="#5f277e" fill-rule="evenodd"/></g></g></g></g><rect transform="scale(1,-1)" x="8.5365e-7" y="-132.28" width="132.28" height="132.28" opacity="0" stroke-width=".8201"/></svg>
